<svg xmlns="http://www.w3.org/2000/svg" xml:space="preserve" width="3796.6" height="1813.8" viewBox="0 0 3796.6 1813.8">
  <path fill="currentColor" d="M1842.8 9.6c-1.2 1.1-6.9 1.8-22 2.6-18.2 1-39.2 4.2-64 9.7-16.7 3.7-39.8 10.7-49.1 14.9-2.3 1.1-4.6 1.9-5.2 1.9s-2.3.6-3.9 1.4c-1.5.7-4.8 2.3-7.3 3.4-8.2 3.7-23.4 11.3-27.5 13.7-2.2 1.3-5 2.9-6.3 3.4-1.2.6-3.5 1.9-5 3-1.5 1-5.4 3.6-8.7 5.7-16.4 10.5-46.2 34.9-58 47.5-14.5 15.5-37.1 44.5-44.4 57-8.2 13.7-14.2 24.5-16.8 29.9-5.2 10.9-8.1 17.4-8.8 20-.4 1.4-1.1 2.9-1.5 3.5-1 1.3-7.4 19.7-10.4 30-5.8 19.8-9.3 38.4-12.2 63.1-1.3 11.1-1.5 20.5-1.1 44 .2 16.5.9 32.8 1.5 36.4.6 3.6 1.6 9.9 2.2 14 2.2 16.2 7.4 37.1 12.5 51 .7 1.9 2.2 6.2 3.5 9.5 1.2 3.3 3 7.6 4.1 9.6 1 2 1.9 4.1 1.9 4.6 0 1.8 11.1 21.7 17.5 31.2 8.5 12.9 19.8 25.1 23.2 25.1 2.3 0 2.4-.3 1.8-2.8-4.4-16.8-7.4-40.9-7.5-58.7 0-24.2 4.7-55.9 11.6-78.5 3.4-11 6.6-20.7 8-23.7.8-1.7 1.4-3.7 1.4-4.5s.4-1.8.9-2.3c.5-.6 2.2-4.4 3.9-8.5 1.7-4.3 3.5-7.5 4.3-7.5s2.4 3 3.9 7.5c3.4 9.9 6 16.8 10.5 27.5 9 21.5 23.6 46.3 38.3 65 7.8 9.9 30.9 32.7 42.4 41.7 9.7 7.8 25.2 18.8 26.2 18.8.4 0 2.8 1.5 5.4 3.2 5.1 3.5 6.8 4.5 14.1 8.5 2.5 1.4 5 2.9 5.5 3.4.6.5 1.8.9 2.8.9 2.3 0 2.4-4.6.3-18-1.7-11.1-2-54.1-.5-66 .6-4.1 1.4-12 2-17.6 1.3-14.5 6.6-43.3 9.7-53.2 1.5-4.9 1.5-5.8 0-12-8.4-33.4-6.4-73.6 5.1-102.7 1.1-2.8 2.6-6.6 3.4-8.5 2.2-5.8 11.7-22 17.6-30 17.2-23.3 40.5-39.9 68.2-48.5 21.6-6.8 50.6-6.7 74.5.3 31.9 9.3 59.1 32.4 74.8 63.7 5.4 10.7 7.7 16 7.7 17.8 0 .9.4 1.8.9 2.1.5.3 1.2 1.8 1.5 3.3.4 1.6 1.5 5.7 2.6 9.3 5.4 18.3 6.4 27 6.4 55.5 0 28-1 37.6-6 57-2.1 7.9-10.1 33-11.3 35.2-.5 1-3.1 6.3-5.7 11.8s-7.3 14.4-10.5 19.7c-3.3 5.4-5.9 10.1-5.9 10.6 0 1.3 7.4 12.2 14 20.7 21.8 28.2 49.8 56.3 108.5 109.2 9.9 8.9 20.7 18.9 24 22.2 3.3 3.4 6.7 6.1 7.6 6.1 1 0 5.3-4.7 10.1-10.8 10-12.8 16.8-22 16.8-22.6 0-.2 2.4-3.9 5.3-8.2 13.6-20.2 31.6-54 40.7-76.4 1.2-3 3.1-7.8 4.2-10.5 1.1-2.8 2.9-6.9 3.9-9.3 1-2.3 1.9-5.1 1.9-6.2 0-1 .4-2.2 1-2.5.5-.3 1.4-2.5 2-4.8s1.7-5.8 2.4-7.7c5.5-14.6 14.5-50.7 16.7-67 .6-4.1 1.4-9.3 2-11.5 1.8-7.9 2.9-41.7 2-61.6-2.1-43-12.8-87.1-30.2-124.7-2.2-4.6-3.9-8.5-3.9-8.7 0-.7-15.3-26.8-19.4-33.3-17.3-26.6-42.6-53.7-69.6-74.4-10.2-7.9-21.5-15.8-22.4-15.8-.3 0-2.6-1.4-5.1-3.1-11.2-7.6-35.6-19.5-56.5-27.7-3.1-1.2-6-2.2-6.5-2.2-.6-.1-2.8-.9-5-2s-4.6-1.9-5.4-2c-.8 0-4.4-.9-8-2.1-26.3-8.2-61-14.8-88.1-16.5-5.8-.4-11.2-.8-12-1-.8-.1-3.4-.3-5.8-.3-2.4-.1-4.1-.5-3.8-.9.3-.5-.1-.9-.9-.9s-1.2.4-.9.9c.3.4 0 .8-.5.8-.6 0-1.1-.6-1.1-1.3 0-.8-.4-.7-1 .3-.9 1.3-1 1.3-1 0s-.1-1.3-1 0c-.6 1-1 1.1-1 .2 0-.9-3.6-1.2-14.6-1.2-9.4 0-14.3.4-13.9 1 .3.5.2 1-.4 1-.5 0-1.2-.6-1.4-1.3-.4-.9-.6-.8-.6.2-.1 1.1-.4 1.1-1.8 0-1.1-1-1.4-1-.9-.2.4.8.1 1.3-.9 1.3-.9 0-1.3-.5-1-1 .8-1.3.2-1.3-1-.1zm455 137.2c-.8 1.1 1 17.3 3.1 28.4 3.4 17.6 10.9 44.5 14.9 53.2.8 1.7 1.5 3.5 1.5 4.1 0 2.5 15.8 36.2 23.8 50.7 29.3 53.2 75.8 106.7 128.6 148.2 6.8 5.4 14.8 11.5 17.8 13.6 2.9 2.1 8.3 6 12 8.7 11.7 8.3 16.6 12.9 23.3 21.8 19 25.4 24.5 53.1 24.5 124 0 40-.1 39.4 7.2 34.5 5.4-3.5 6.8-4.4 14.3-8.8 3.3-2 6.7-4 7.5-4.5 4.8-3.2 22.6-12.6 36-19.2 15-7.3 19.7-9.5 29.8-13.8 2.6-1.2 6-2.8 7.5-3.5 1.6-.8 3.4-1.5 4-1.5.7 0 3-.9 5.1-2.1 2.7-1.4 4.2-1.7 4.9-1 .8.8-1.3 3.5-6.9 9.3-16.8 17.4-36.3 40.9-44.1 53.3-6.8 10.7-11.3 18.7-11.3 20.1 0 2.1 1.6 1.7 4.7-1.2 10.5-9.8 38.6-26.5 64.3-38.1 18.1-8.3 47.2-18.6 59.8-21.3 2.4-.5 6.4-1.6 9-2.4 8.7-2.7 27.5-6.3 46.7-8.8 11.1-1.5 64.9-1.4 75.5.1 20 2.8 24.4 3.7 24.7 4.8.3.7-.8 1.5-2.4 1.8-7.4 1.5-27.1 7.4-34.3 10.3-1.4.5-4.5 1.8-7 2.8-2.5.9-8.2 3.5-12.7 5.6-4.4 2.1-8.4 3.8-8.7 3.8-.7 0-19 10.4-24.1 13.8-9.8 6.4-20.1 14.2-21.2 16-1.2 2-1.1 2 7 .1 12.1-2.8 32.7-6 44.7-6.9 17-1.2 55-.5 67.5 1.4 25.2 3.8 24.8 3.7 25.7 2.4.4-.7.8-20.3.8-43.6v-42.2l90.8.1c49.9 0 93.9.5 97.7 1 3.9.5 11.3 1.4 16.5 1.9 21.5 2.2 54 10.4 76 19 3 1.2 7.2 2.8 9.3 3.6 2 .8 4.5 1.8 5.5 2.4.9.5 2.8 1.4 4.2 2 1.4.5 3.2 1.4 4 2 .8.5 2.6 1.5 4 2 4.2 1.7 13 6.9 24.7 14.6 26.5 17.5 50.1 40.8 68.7 67.9 4.6 6.6 8.6 12.7 8.9 13.5.4.8 1.8 3.3 3.2 5.5 2.2 3.5 13.5 26 17.1 34 3 6.8 6.1 15.6 14.1 40 .8 2.7 2.1 7.5 2.8 10.5s2.2 9.8 3.4 15c3.1 13.2 6 29.9 7 40 .5 4.7 1.5 12.5 2.3 17.5.9 6.5 1.3 22 1.3 56.5 0 50.9-.5 58.4-6 92-4.2 24.9-10 48.6-16.4 66.5-1.2 3.3-2.8 8.1-3.7 10.7-.8 2.6-1.9 5-2.4 5.3-.6.3-1 1.3-1 2.2 0 1.8-1.4 5-10 22.3-3.4 6.9-8.1 15.6-10.5 19.5-2.5 3.8-4.8 7.7-5.2 8.6-3.8 7.6-25.4 34.2-37.3 45.7-14.1 13.8-36.6 30.7-52 39.1-9.2 5-25.7 12.9-31.5 15.1-3.3 1.2-6.7 2.6-7.5 3-2.8 1.3-30.5 9.7-37.5 11.3-11.2 2.6-28 5.5-42.5 7.3-11 1.5-23.9 1.8-70.5 2.2-36.5.2-57.4.7-58 1.3-.7.7.3 2.1 3 4.1 7.1 5.5 30.9 30.1 37.1 38.3 18.4 24.4 29.7 45.5 38.4 71.5 5.9 17.9 8.5 29.8 11.1 51.5 1.5 12.1.6 46.4-1.5 58.5-2.2 12.7-5.5 27.9-6.8 31-.6 1.4-1.6 4.5-2.3 7-1.7 5.9-3.4 10.6-5.6 15.6-1.1 2.3-1.9 4.4-1.9 4.8 0 .6-7.6 16.1-10.1 20.6-2.9 5.1-11.3 17.6-14.7 21.7-2 2.5-3.1 4.7-2.6 5.4.5.9 9.4 1.1 37.3.6 20.1-.4 37.5-.9 38.6-1.1s10.6-.9 21-1.6c31.4-1.9 68.1-6 94-10.6 8.4-1.4 12.1-2.2 30-5.9 33-6.9 65.2-16.5 97.5-29.1 5.2-2 11.4-4.5 13.7-5.5 2.3-1.1 4.4-1.9 4.7-1.9s4.4-1.8 9.3-4.1c4.8-2.2 11.7-5.5 15.3-7.1 3.6-1.7 7.4-3.4 8.5-3.9s2.7-1.3 3.5-1.9c.8-.5 2.6-1.5 4-2 1.4-.6 4.3-2.1 6.5-3.3 2.2-1.3 7.6-4.3 12-6.6 6.5-3.6 19.4-11 28.7-16.6 38.8-23.4 73.8-49 100.9-73.8 21.6-19.7 49.7-50.5 60.3-66.1 1.2-1.9 3.7-5.2 5.4-7.4 1.8-2.2 3.2-4.3 3.2-4.7 0-.4 3.9-5.9 8.8-12.2 14.3-18.9 16.7-22.1 27.5-38.3 19.8-29.6 30.8-49.4 49.5-89 3.1-6.4 10.7-24.9 14.4-34.5 1-2.8 2.3-5.9 2.8-7 .4-1.1 2-5.4 3.3-9.5 1.4-4.2 3.2-9.4 4-11.5.8-2.2 2.4-7.4 3.7-11.5 1.2-4.1 2.8-9.3 3.5-11.5 1.2-3.9 3.4-11.5 7.4-26.8 9.4-34.9 18.7-91.2 20.6-123.7 1-17.6 1.7-24 2.6-23.5.4.3.8-16.1.9-36.5 0-25.1-.3-36.9-1-36.5-.5.3-1-.2-1-1.2 0-4.2-3-44.6-3.4-45.2-.2-.3-.9-5.6-1.5-11.6-.7-6.1-1.9-15.1-2.7-20-2.7-16.4-5.5-31.9-6.9-38-.8-3.3-2.5-11.2-4-17.5-2.5-11.3-3.7-15.9-7.5-29.3-6.8-23.6-12-39.3-20.5-61.7-2-5.2-4.2-10.9-5-12.5-.8-1.7-4.3-9.8-7.9-18-9.2-21.1-25.7-53.2-36.6-70.9-5-8.2-24.9-38.2-29-43.9-21.6-29.4-39.1-49.8-65.5-76.2-33.8-33.9-61.6-56.7-99-81.2-5.5-3.6-11.1-7.3-12.5-8.2-8.8-6-37.3-21.8-60.5-33.5-21.4-10.8-35.5-17.1-56.5-25.1-21.6-8.2-41.8-14.8-63.5-20.5-4.4-1.2-10.2-2.7-13-3.5-2.7-.8-6.8-1.7-9-2-2.2-.4-6.5-1.3-9.5-2-17.9-4.3-64-11.9-79.5-13.1-3.8-.3-9.5-.9-12.5-1.4-6.8-1.1-14.4-1.8-28-2.6-5.8-.3-13.9-1-18-1.6-9.2-1.2-74.9-1.7-314-2.2-101.5-.1-185.4-.5-186.5-.8s-10.1-.8-20-1.2c-32.4-1.1-63.6-2.6-65.5-3.1-.8-.2-8.8-.9-17.8-1.5-8.9-.6-18.8-1.5-22-2.1-3.1-.5-8.6-1.1-12.2-1.4-7.5-.6-27.2-3.8-41-6.5-5.2-1-10.6-2.1-12-2.3-7-1.2-35.6-9.7-42.5-12.6-1.1-.5-4.7-1.9-8-3.1-11.1-4.2-36-16.2-48-23-3.8-2.2-7.7-4.3-8.5-4.7-1.7-.7-9.7-5.7-17.6-10.9-6.5-4.2-10.1-5.7-10.9-4.3zM18.3 152.4c0 2.1.5 5.6 1 7.8.6 2.2 1.5 7.6 2 12 1 8.6 2.9 17.7 6.2 29 3.3 11.7 9 29.1 10.8 33 .5 1.1 3 6.9 5.6 13 6.5 15.5 17.8 37.8 23.4 46.5.5.8 1.7 2.8 2.6 4.5 5 8.9 23.3 35.3 33.3 48 10.8 13.7 32.1 37.2 45.2 50 22 21.4 30.7 28.9 56.9 49.4 39.8 31.1 52.2 49.9 59.9 91.6 3 15.9 3.2 42 2.9 452.5-.3 402.8-.4 417.9-2.2 428.5-1.8 10.7-6 27.3-8.8 34.6-6.2 16.4-23.4 34-45.3 46.3-1.6.9-8.8 5.3-16 9.6-7.1 4.3-22.8 13.6-34.8 20.7-12 7-23.5 13.8-25.5 15.1-2 1.2-4.6 2.7-5.7 3.2-1.1.6-5.1 3-9 5.5-3.8 2.4-8.3 5.1-10 6-1.6.8-4.2 2.3-5.7 3.2-1.5 1-6.5 4.1-11.1 7-4.6 2.8-8.9 5.9-9.6 6.7-.8.9-1.7 1.6-2.1 1.6-.5 0-4.8 2.3-9.7 5.1-4.8 2.8-9.8 5.5-11.1 6-8.8 3.4-8.8 3.4 374.9 3.4 334 0 399.7-.3 407.4-1.9 1.1-.2 8.3-.7 16-1.1 27.4-1.3 77.1-7.6 104-13.1 20.6-4.2 26.4-5.5 38-8.3 9.8-2.5 28.9-7.8 36-10.2 1.7-.5 6.6-2.1 11-3.6 10.2-3.2 17.9-6.1 23-8.4 2.2-.9 5.2-2.1 6.8-2.4 1.5-.4 3-1.1 3.3-1.6s1.2-.9 2.1-.9c.8 0 3.1-.7 5.1-1.6 2.1-.9 5.6-2.5 8-3.5 11-4.9 14.8-6.7 30.7-14.6 9.4-4.6 17.7-8.8 18.5-9.3s8.3-4.8 16.5-9.6c8.3-4.8 15.9-9.2 17-9.8 2.6-1.5 5.5-3.4 21-13.5 7.1-4.8 13.4-8.8 14-9.1 7.9-3.8 61.1-45 66.4-51.4 1.3-1.6 1-8.9-1.9-41.6-1.2-14.2-1.2-58.8 0-73 .6-6.3 1.5-17.1 2-24 1.3-16.5 6.5-53.9 9.6-68 .7-3.6 1.8-8.8 2.3-11.5.5-2.8 1.7-8.4 2.7-12.5 3.7-15.9 2.1-16.4-10.4-3.4-14.2 14.9-28.1 33.9-35.9 49.4-1.5 3-2.9 5.7-3.1 5.9-.1.3-.8-.1-1.4-.7-.9-.9-.6-7.3 1.1-26.9 1.2-14.2 2.9-30.5 3.6-36.3.8-5.8 1.6-13.9 2-18 1.6-20.8 8-57.6 13.1-75.5.7-2.8 2.3-8.6 3.5-13 2.3-8.2 9.4-30.4 10.9-34 .5-1.1 2.1-5.2 3.5-9 3.7-9.8 7.6-18.8 8.6-20 .5-.5.9-1.5.9-2.2 0-4.7 24.3-48.9 37.5-68.3 27.1-39.7 65.6-78.7 98.8-100 7-4.5 7.7-5.9 3.6-7.1-16.5-4.6-57.2-3.7-94.9 2.2-19.9 3.1-45.6 9.2-59.5 14-1.6.6-4.8 1.5-6.9 2-2.2.6-5.2 1.7-6.8 2.7-2.2 1.3-3 1.4-4 .3-1.1-1-1-1.5.2-2.4.8-.7 4.1-4.4 7.2-8.2 9.2-11.4 37.5-37.7 56.8-52.7 8.4-6.6 38-28.9 43-32.4 7.7-5.4 49.6-33.1 56.7-37.5 9.8-6.1 25.1-14.9 25.8-14.9.3 0 2.6-1.4 5.1-3.1 2.4-1.6 5.8-3.5 7.5-4.1 3-1 3.1-1.2 2.4-5.7-.4-2.5-1.5-6.6-2.6-9-1-2.4-1.9-5-1.9-5.7s-.6-2.8-1.4-4.6c-.7-1.8-2.3-5.8-3.4-8.8-3.6-9.9-13.4-34.4-16.7-41.5-1.8-3.9-4.5-9.9-6.1-13.5-6-13.6-15.5-31.5-28.1-53.3-32.6-56.4-75.4-109-125-153.5-13.7-12.3-40.9-34.2-51.8-41.8-1.6-1.1-7.6-5.3-13.3-9.2-5.6-3.9-12.3-8.4-14.8-9.9s-6.4-4-8.7-5.5c-2.3-1.5-5.1-3.2-6.2-3.8-1.1-.6-3.3-1.9-5-2.9-2.8-1.7-5.6-3.3-14.2-8.2-11.8-6.7-41.3-21.7-53.8-27.4-3.3-1.5-9.3-4.3-13.3-6.1-4-1.9-7.7-3.4-8.2-3.4s-2.9-.9-5.2-1.9c-11.4-5.2-45.5-17.2-58.3-20.6-2.7-.8-9.3-2.6-14.5-4-9.8-2.8-12.7-3.5-32-7.7-28.5-6.4-68.9-12.6-92.5-14.2-17.2-1.3-24.5-1.9-31.5-2.6-4.1-.4-88.9-.9-188.5-.9-99.5-.1-197.2-.4-217-.6-56.5-.7-103.3-1.6-105.2-1.9-1-.2-11.9-.7-24.3-1-26.3-.7-44.1-1.5-49-2.1-1.9-.2-6.9-.7-11-1-24.1-1.7-35.2-2.7-40.5-3.5-3.3-.4-9.6-1.1-14-1.5s-11.1-1.3-14.8-2.1c-3.8-.8-8.2-1.4-9.8-1.4-4.2 0-30.6-5.8-41.9-9.2-10.3-3.1-38-13.3-42.9-15.8-.9-.4-6.1-2.8-11.6-5.1-10-4.4-29.6-14.1-39-19.4-10.1-5.6-18.9-10.8-22.3-13.1-4.9-3.4-6.2-3.1-6.2 1.3zm812.5 409.3c3.3.5 10.5 1.4 16 2 22.1 2.3 57.7 10.9 73.2 17.6 1.7.8 3.7 1.4 4.5 1.4.7 0 2.2.6 3.3 1.4 1.1.7 3.1 1.7 4.5 2.1 7.6 2.4 33 16 43.5 23.3 16.3 11.4 25.5 19.1 38.1 31.6 24.4 24.4 42 50.5 57.1 84.6 1.1 2.5 2.8 6.1 3.7 8.2.9 2 1.6 4.3 1.6 5.1 0 .9.4 1.8.8 2.1.8.5 8 22.2 12 36.1 3.9 13.6 8.5 36.8 11.1 56 8.5 61.5 5.8 139.4-6.6 191.5-.8 3.6-1.7 7.8-2 9.5-.3 1.6-1.3 5.7-2.2 9-1 3.3-2.8 9.4-4 13.5-1.3 4.1-2.8 9.1-3.6 11-4.6 12.6-5.9 16-7.7 20.5-4.4 11.1-14 30.5-19.2 39-30.7 49.8-68.8 83.9-118.6 106-19 8.4-44.9 16.7-61.5 19.6-2.7.5-8.6 1.6-13 2.4-25.7 4.7-28.4 4.8-124 5.2-50 .2-92 .1-93.2-.2l-2.3-.5V910.8c0-191.8.3-349.1.7-349.4 1-1.1 180.9-.7 187.8.3z"/>
  <path fill="currentColor" d="M1781.1 347.4c-4.5 6.8-9.5 16.7-12.4 24.6-3.6 9.5-9.2 29.6-10.4 37.3-.5 3.4-1.4 7.3-1.9 8.6s-1.2 5.1-1.6 8.4c-.3 3.2-1.3 10.2-2.2 15.4-1.3 7.4-1.7 16.9-1.7 42.5-.1 35.4.4 40.4 6 62.7 3.9 15.2 4.3 15.9 13.7 22.1 26 17.1 52.9 44.2 69 69.4 4 6.3 11.7 21.5 11.7 23.1 0 .4.9 2.5 2.1 4.6 2 3.8 2.3 8.6.4 8.8-.5 0-1.6-1.2-2.4-2.7-3.1-6.4-12.7-18.6-21.8-27.9-9.4-9.5-27.9-25-37.2-31.2-13.4-8.9-16.2-10.7-21.9-14.1-3.5-2.1-7.4-4.5-8.7-5.3-1.3-.8-17.1-10.1-35-20.5-17.9-10.5-33.7-19.7-35-20.5-1.2-.8-4.9-3.1-8.1-4.9-3.3-1.9-8.6-5.4-11.9-7.6-3.3-2.3-8.3-5.7-11.1-7.7-19.8-13.5-42.7-34.1-55.5-50-10.2-12.8-13.6-18-20.5-31.5-3.5-6.8-5.9-9.3-7.4-7.6-.4.4-1.7 6.9-2.9 14.3-4.4 27.3-2.1 59 5.9 83 3.4 10.2 8.8 22.2 12.8 28.3 3.4 5.1 2 6.5-4 4.4-2.3-.9-6.1-1.8-8.3-2.2-2.2-.3-7.1-1.2-11-2-3.8-.7-12.8-2.1-20-2.9-7.1-.9-14.8-1.8-17-2.1-9.3-1.1-70.2-1.8-70.8-.7-1.1 1.6.3 4.2 2.2 4.2 2.1 0 18.2 10.6 29.6 19.5 11.9 9.3 29.7 27 37.6 37.5 7.2 9.6 7.7 10.2 11.7 18.5 5.6 11.4 6.2 13.4 6.2 21.1 0 6.1-.4 8.1-2.4 11.2-4.6 7.3-17.4 18-31.8 26.7-6.6 4-20.6 12-27.3 15.5-4.4 2.4-10.5 5.6-13.5 7.3-3 1.6-9.1 4.9-13.5 7.2s-10.7 5.7-14 7.5-8.9 4.8-12.5 6.8c-5.3 2.8-18.4 10.4-27.2 15.7-.9.5-3.8 2.3-6.5 3.9-15.6 9.4-39.7 27.2-50.9 37.6-5.7 5.3-4.9 7 2.4 5.1 2.7-.6 9.6-1.8 15.3-2.6 5.7-.8 13.6-1.9 17.4-2.5 3.9-.6 16.7-1.1 28.5-1.1 18-.1 23.2.3 32 2.1 26.5 5.3 43.6 16.9 53.7 36.3 5.3 10.2 6.9 31.9 3.8 52.2-1.9 12.2-5.2 31.2-6.6 38-1.2 5.6-3.9 22.3-3.9 24.2 0 2.5 2.2 1.2 8.3-4.5 9.5-9.1 39.1-32.8 45.7-36.7 1-.5 6-3.9 11.1-7.5 5.2-3.6 10.2-6.9 11.1-7.5.9-.5 4.5-2.8 8-4.9 25.8-16 52.9-30.6 72.3-39 6.1-2.7 12.8-5.7 15.1-6.7 2.3-1 4.8-1.9 5.7-1.9.9 0 1.8-.4 2.1-.9.3-.5 1.8-1.2 3.3-1.5 1.6-.4 5.1-1.5 7.8-2.6 8.8-3.3 18.5-6 21.4-6 1.6 0 3.5-.7 4.2-1.6 1.1-1.4 1-1.9-1-3.5-1.3-1.1-3.2-1.9-4.3-1.9-1.2 0-5.5-.9-9.7-1.9-13.6-3.4-21.5-5.1-28.6-6.1-3.8-.5-8.4-1.4-10.2-1.9-1.7-.5-8.1-1.2-14.2-1.6-6.1-.4-11.1-1.2-11.1-1.7 0-3.5 25.4-25.2 40.5-34.6 4.8-2.9 28.8-15.1 35-17.7 1.7-.7 5.1-2.2 7.8-3.4 2.6-1.1 5.4-2.1 6.2-2.1.8 0 2.9-.6 4.7-1.4 10-4.3 36.9-11.1 59.3-15 21-3.7 62-5 78-2.6 14.5 2.2 14.1 2.7-2.6 3.9-11.7.9-23.6 2.7-33.9 5.2-2.5.6-7.2 1.7-10.5 2.5-7.7 1.8-19.2 4.9-23 6.3-1.6.6-6.4 2.2-10.5 3.5-11 3.6-29 10.9-34 13.7-.8.5-2.6 1.4-4 1.9-1.4.6-3.2 1.5-4 2-.8.6-2.6 1.5-3.9 2-4.7 2-19.1 12.2-19.1 13.5 0 .8 1.7 1.6 4.3 2 2.3.4 6.7 1.2 9.7 2 3 .7 10 2.3 15.5 3.5s12.9 3 16.5 4c16.5 4.4 19.9 5.3 25 7 3 1 6.7 2.1 8.3 2.4 1.5.4 2.7 1 2.7 1.5 0 1.1-4 3.8-10.5 7.1-8.9 4.5-25 15.7-35.6 24.8-24.6 21-45.2 46.7-57.9 72.3-1.7 3.5-3.7 7.5-4.5 8.9-1.9 3.8-2.6 7.8-1.5 8.5.5.3 2.2-.1 3.7-.9 23.2-12.6 43.7-17.8 70.3-18 36.4-.1 68.3 12 88.5 33.5 15.7 16.7 23.6 37.6 23.6 62.4 0 25.1-7.8 47.4-24.7 70-5.6 7.5-12.5 14.6-16.1 16.4-2.4 1.2-3.1 4.5-1.3 5.6 3.5 2.2 40.2-.9 49.2-4.1 2.2-.7 4.7-1.4 5.5-1.4s3.1-.7 5-1.6c2.1-1.1 3.8-1.3 4.4-.7 1.7 1.7-8.8 19.8-18.4 31.8-10.6 13.2-28.1 28.5-34.2 30.1-1.4.3-2.4 1.1-2.2 1.8.5 1.6 7.8 1.9 15.1.7 3.3-.6 9-1.5 12.6-2.1 8.7-1.5 21-5.1 37-11 8.3-3 24.3-10.7 32.5-15.5 2.2-1.3 4.9-2.9 6-3.4 1.1-.6 3.8-2.4 6-4s6.4-4.7 9.4-6.7c7.9-5.4 25.9-23.8 31.2-31.9 6.1-9.2 8.9-14.2 8.9-16 0-2-4.1-1.9-10.5.1-7.6 2.3-22.8 2.3-29-.1-10.8-4.1-14.1-8.5-15.5-20.5-1.7-15 2.1-40.9 10.1-67.9.8-2.9-1.8-1.9-7.1 2.5-12 10-21.5 12.2-30.3 7.1-3.5-2.1-4.9-3.8-7.2-8.8-2.6-6-2.7-6.6-2.2-19.3.4-13 1.7-19.3 6.6-34.8 4.2-13.1 6.3-18.2 11.9-29.4 3-6 2.5-8-2-8.9-1.8-.3-7.6-1.5-12.8-2.5-17.1-3.4-31.3-5.1-48-5.6-16.5-.5-21.8-1.6-14.4-3 2.2-.3 4.8-1.1 5.9-1.7s4.7-1.6 8-2.3c3.3-.7 9.4-1.9 13.5-2.8 25.2-5.3 40.6-7.8 55.7-9 4-.3 10.5-1.1 14.5-1.8 9.7-1.6 71.2-1.7 78.8-.1 3 .6 8.4 1.6 11.9 2.3 3.5.6 9.7 2.7 13.7 4.7 6.1 2.9 7.8 4.3 10.1 8.2 2.5 4.1 2.8 5.6 2.8 13.1-.1 6-.7 10.5-2.3 15.5-2.1 6.4-7.9 19.9-10.2 23.5-3.6 5.8-6.9 12-7.2 13.6-.3 1.8.4 1.9 12.3 1.5 29.1-.8 61.9 4.1 83.8 12.6 7.7 3 8.7 3.5 17.4 9.2 12.4 8 19.8 20.4 23.2 39 2 10.9 1.9 15.5-.5 29.2-1.2 7.1-1.6 11.7-1 12.3 1.4 1.4 5.8-1.1 17.7-10.2 12.5-9.5 19.5-16.4 29.1-28.6 18.4-23.3 32.2-49.5 39.7-75.1 5-17 6.8-25.7 9.6-47.5 1.2-8.8.8-42.4-.4-43.6-.9-1-5.5 3.4-6.3 6-1.7 5.2-15.9 22.2-24.3 29-7.8 6.2-10.7 8.1-18.1 11.8-9 4.5-9.5 4.2-10.3-7.2-.8-13.3-12.1-27.7-28.3-36.1l-8.8-4.7.3-20.4c.2-15.9-.1-22.3-1.4-28.9-2.3-11.9-5.3-23.6-7.6-29.4-1-2.8-1.9-5.5-1.9-6-.1-.6-.9-2.8-2-5s-1.9-4.4-2-4.8c0-2-12.4-25.5-18.6-35.4-7.3-11.7-19.4-28.3-29.7-40.6-13.7-16.3-49-51.4-78.2-77.7-34.2-30.7-81-79.8-94.9-99.5-19.5-27.6-25.8-38.9-37.6-67-5.5-13.2-10.9-41.8-11-58.2 0-6.6-.6-7.8-3.1-6-4 3.1-15.2 33.5-17.4 47.2-.4 2.2-1.4 7.4-2.3 11.5-1.2 5.8-1.6 13-1.6 31 0 22.1.2 24 2.6 33 1.4 5.2 3.4 11.3 4.3 13.4 2.2 5.2 29.2 32.6 55 55.9 11 10 22.9 20.9 26.5 24.2 3.6 3.4 13.5 12.7 22 20.7s16.9 16.1 18.5 18c1.7 1.8 8.1 8.9 14.4 15.8 15.3 16.8 30.6 36.6 38.4 49.8 1.8 3 4.1 6.8 5.1 8.5 5.3 8.7 14.6 28.4 14.6 31 0 2.9 0 3-2 1.2-1.1-1-2-2.2-2-2.7 0-1.5-13-19.9-21-29.8-16.9-20.9-44.7-48.8-79.9-80.3-7.5-6.7-16.3-14.7-19.6-17.8-3.3-3-8.5-7.8-11.5-10.5-32.5-29-63.2-59.7-81-81-6.9-8.2-13.2-15.9-14-17-.8-1.2-4.2-5.9-7.5-10.5-5.2-7.2-9.9-14.5-15.2-23.4-2.6-4.5-13.6-26.2-14.3-28.5-.5-1.4-2.1-5.7-3.5-9.5-6.6-17.5-10.5-37.1-11.3-56.4-.5-10.1-1.1-15.6-1.8-15.8-.7-.2-3.2 2.7-5.6 6.4zm293 382.4-.3 2.4-1.3-2.3c-.7-1.2-1-2.7-.6-3.3 1-1.7 2.6.6 2.2 3.2zm-75.4 7.9c19.1 9.6 40.3 27.6 51.2 43.5 7.2 10.4 8.4 12.5 11.9 19 2 3.8 4 7.4 4.4 8 1.4 1.9 3.4 9.5 2.7 10.2-1.1 1.1-19.8-1.3-24.1-3.2-15.2-6.5-25.1-14.3-33.6-26.5-4.8-7-13.9-25.3-13.9-28.2 0-.6-.6-2.4-1.4-4.1-2.1-4.4-6.6-18.4-6.6-20.2 0-2.3 2.7-1.8 9.4 1.5zm732.1-104c-17 3.7-26.7 6.7-36.5 11.2-7.8 3.5-20.3 9.9-24.5 12.3-2.2 1.3-4.7 2.7-5.5 3.1-.8.4-3.6 2.3-6.2 4.1-2.6 1.8-5 3.3-5.3 3.3-1.9 0-39.3 28.7-54.6 41.9-18.9 16.4-38.1 31.4-46.5 36.3-9.1 5.3-15.8 7.3-20.3 5.9-5.6-1.6-8.6-5.4-8.5-10.4.1-6.9 7.2-24.4 13.5-33.7.9-1.4 3.4-5.2 5.5-8.5s5.7-8.6 8.1-11.7c9.2-12.1 3.2-10.3-20.2 6.3-54 38.3-103.8 94.4-142.3 160.5-6.8 11.7-20.7 39.7-24.8 49.9-5.4 13.8-11.1 31.6-10.2 32.1.5.3 3.6-2.5 7-6.3 11.2-12.3 41.1-41.6 51.3-50.2 13.5-11.3 33.5-26.1 48-35.5 6.6-4.4 13.1-8.6 14.5-9.6 3.6-2.4 23.2-13.7 32.5-18.7 14-7.5 39-19.4 43.5-20.8 1.4-.4 3-1.1 3.5-1.5.6-.4 4-2 7.8-3.4 3.7-1.4 9.7-3.8 13.5-5.2 25.8-10.1 60.5-19.7 87.2-24 5.2-.8 12.2-2 15.5-2.5 8.9-1.4 46.2-2.2 46.9-1 1.1 1.6-2.4 2.8-10.4 3.5-17.6 1.6-61.3 11.7-73.8 17.2-1.8.8-4 1.4-5 1.4-.9.1-3.5.9-5.7 2s-4.4 1.9-5 2c-1 0-18.3 6.8-24 9.5-24.6 11.3-36.6 17.2-46 22.5-4.4 2.5-8.7 4.9-9.5 5.3-.8.4-3.3 1.8-5.5 3.2-2.2 1.3-5.3 3.2-7 4.1-10.7 6-45.9 29.8-60.3 40.9-23.4 18-30.1 23.5-54.6 44.9-11.5 10-61.5 60.1-72.1 72.2-29.4 33.3-42.4 49.4-62.9 77.3-9.6 13-11.2 16.6-7.8 17.8 15 5.1 32.8 15 45.9 25.5 5 4 19.8 15.8 32.9 26.3 13 10.4 28.1 22.7 33.6 27.2 5.4 4.6 10.8 8.3 11.8 8.3 1.5 0 2.9-1.9 5.5-7.5 1.9-4.1 3.5-7.6 3.5-7.9 0-2.7 31.7-65.8 44.5-88.6 3.2-5.8 6.5-11.6 7.3-13s2.4-4.1 3.5-6.1c1.2-2 4-6.7 6.2-10.3 2.2-3.7 4.5-7.5 5-8.4 12.7-21.4 35.3-55 53.1-78.7 35.8-47.8 59.3-72.9 81.9-87.7 16.4-10.7 28.7-17.1 44-22.8 3.3-1.2 7.5-2.9 9.3-3.6 1.8-.8 3.8-1.4 4.5-1.4s4.1-.8 7.7-1.9c12.3-3.7 21.6-5.2 40.2-6.9 17.2-1.4 20.1-1.4 36.5.1 22.1 2 36 5.1 54.8 12.5 8.7 3.4 25.2 12.2 30.3 16.2 1.3 1.1 3.1 2 3.8 2s4.9-2.4 9.2-5.3c11.2-7.5 23.9-14.5 31.2-17.2 3.5-1.3 19.7-7.9 23.5-9.5 1.1-.5 3.1-1.2 4.5-1.5s4.1-1.2 6-1.9c7.1-2.7 18.7-6.1 38-11.1 3-.8 9.8-2.3 15-3.4 5.2-1.1 12.9-2.7 17-3.6 4.1-.8 11.1-2 15.5-2.5s10.9-1.3 14.5-1.9c23.3-3.7 73-3.2 90.2.9 6.7 1.6 8.5 1.7 9.5.7 2.8-2.8-38.6-40.2-62.5-56.5-13-8.8-19.6-13.1-21.2-13.8-.8-.4-2.2-1.2-3-1.9-1.9-1.5-10.3-6.1-24.5-13.5-9.4-4.9-16.3-8-36.3-16.6-1.8-.8-3.7-1.4-4.3-1.4s-2.5-.6-4.2-1.4c-6-2.7-20.9-7.3-39.7-12.1-8.6-2.2-26.7-5.3-35-6-4.1-.3-9.7-.9-12.5-1.2-15.3-1.9-51.5 0-72 3.8-20.3 3.8-41.7 9.5-61.5 16.4-4.1 1.4-9.9 3.2-12.9 4.1-2.9.8-5.8 1.7-6.3 2-1.7 1.1-14.2 3.4-18.1 3.4-7.6 0-12.7-5-12.7-12.3 0-11.5 15.9-29.2 40.6-45.1 2.8-1.8 5.7-3.5 6.5-3.9s3.2-1.8 5.4-3.2c2.2-1.3 5.5-3.1 7.3-3.9 3.5-1.6 4.1-3 1.6-4-2.3-.9-3.6-.7-17.9 2.4z"/>
  <path fill="currentColor" d="M1461.9 852.8c-38.2 29.2-79.4 71.9-106.1 109.9-24.3 34.6-40.1 65.1-54 104-4.9 13.6-11.7 42.1-13.5 56-.6 4.7-1.6 10.5-2.1 12.9-1.5 7 .3 7.6 5.4 1.6 25.8-30.4 45.9-41.1 52.3-27.7 2.9 6.3.4 25.6-5.4 40.2-1 2.5-3.3 10.7-7.1 24.5-6.3 23.1-8.2 32.1-14.5 66-.8 4.4-1.8 10.5-2.1 13.5-.3 3-1.2 10-2 15.5s-2.1 20.9-3.1 34.2c-5.2 74.6 5.1 148.2 30.2 213.8 3.9 10.2 13.2 31 17.2 38.5 11.5 21.5 13.3 24.5 25.3 42.9 10.6 16.1 32.1 42.7 48.3 59.6 7.7 8 9.8 9.7 10.8 8.7s.8-2.5-.9-7.5c-5.3-15.4-9.4-35-10-47.7-.8-15.1 2-22.9 9.5-27.3 3-1.8 3.7-1.8 7.5-.6 2.3.8 6 3 8.1 4.9 4.6 4.1 24.6 28.5 44.6 54.2 29.7 38.1 84.3 76.2 144.5 100.6 4.8 2 13.2 5.1 20.5 7.7 1.9.7 6.7 2.2 10.5 3.3 3.9 1.2 9.8 3.1 13.3 4.2 3.4 1.1 7 2 7.9 2s3.9.7 6.7 1.5c14.4 4.1 41.4 8.6 65.1 10.9 14.2 1.4 64.9 1.6 70 .3 1.1-.2 6.7-.8 12.5-1.2 5.8-.3 15-1.3 20.5-2.1s13.2-1.9 17-2.4c23.7-3.2 71.2-16.1 89.3-24.1 2.3-1 5-1.9 5.8-1.9.9 0 2.8-.7 4.2-1.5 1.5-.8 5.6-2.6 9.2-4.1 5.9-2.4 35.3-16.7 41.9-20.4 62.4-35 118.5-84.4 168.9-148.9 10-12.8 35.2-48.4 35.2-49.7 0-.2 1.5-2.6 3.3-5.2 5.9-8.4 20.9-33.6 33.2-55.7 1.5-2.8 6.8-12.9 11.8-22.5 4.9-9.6 9.3-17.9 9.8-18.5.5-.5.9-2.1.9-3.6 0-2.9-3.7-6.6-24.6-24.6-58.3-50.1-75.5-65.3-99.6-87.9-11.9-11.2-22.3-20.4-23-20.4-1.1 0-5.8 6.1-5.8 7.5 0 1.1-15.3 24.9-22.8 35.5-52.1 73.7-119.4 132.7-179.2 157-3 1.3-6.4 2.6-7.5 3.1s-5.4 2-9.5 3.3c-37.9 12.3-73.9 12.6-113 1-9.9-3-18.7-6.3-21.5-8.1-1.1-.7-2.5-1.3-3.1-1.3-1.4 0-19.5-10.2-26.9-15.1-32.6-21.7-60.9-57.6-77-97.5-5.4-13.2-12.5-35.5-12.5-38.7 0-1.1-.6-4.2-1.4-7-.8-2.9-2.4-11.7-3.7-19.7-1.9-12.5-2.2-18.2-2.2-42 .1-15.1.6-30.7 1.2-34.5.6-3.9 1.6-10.6 2.1-15 1.8-13.6 9.6-46.1 13.6-56.5.7-1.9 1.8-5.1 2.3-7 1.2-4.5 3.8-11.6 5.5-15.5.8-1.7 2.6-6.1 4.1-9.9s3.1-7.7 3.5-8.5c.5-.9 3.8-7.7 7.5-15.1 3.6-7.4 8.2-16.4 10.2-20 5.2-9.5 21-34.7 25.2-40.2 2-2.6 6.1-8.2 9.1-12.4 5.1-7.1 14.3-18.6 24.9-31.3 2.5-3 10.8-11.9 18.4-19.7l13.8-14.3-3.8-2.5c-2.1-1.4-4.3-2.6-4.9-2.6s-3.8-.9-7.1-1.9c-3.2-1-9.9-2.2-14.8-2.6-5-.4-9.9-.9-11-1.1s-7.4.1-14 .7c-16.5 1.5-29.9 5.5-47 13.9-17.2 8.4-36.1 21.8-49.8 35.2-3.3 3.2-6.4 5.5-6.9 5.2-.7-.5-.9-5.1-.5-13.3 1.5-36.3 13.6-74.8 32.4-103.4 7.8-11.9 7.5-13.4-1.9-9.3-8.2 3.6-43.1 21.1-48.3 24.2-2.2 1.3-4.9 2.8-6 3.4-1.1.5-3.8 2.1-6 3.5s-5.1 3-6.5 3.7-4.6 2.7-7.2 4.5-5 3.3-5.3 3.3-1.8.8-3.3 1.9c-1.5 1-9.9 6.6-18.7 12.4-8.8 5.8-19.1 12.9-23 15.6-3.8 2.8-8.1 5.9-9.5 6.8-25.4 17.7-61.7 49-74.8 64.4-5.2 6.1-6.9 7.6-7.8 6.6-1.3-1.4-.3-29.4 1.5-42 .6-4 1.3-10.4 1.6-14.2.4-3.9 1.2-10.4 2-14.5.7-4.1 1.6-9.8 2-12.5.3-2.8 1.3-8.6 2.1-13 .9-4.4 2.4-12.5 3.4-18 4.4-22.9 5-27.5 5-37.8 0-9.1-.4-11.6-2.5-16.9-2.9-7.2-5-9.8-7.9-9.8-1.2.1-5.6 2.8-10 6.1zm1449.9 1c-9.5 4.2-25 11.8-30 14.7-5.4 3.1-7.6 5-17.5 14.6-5.6 5.4-10.6 9.6-11.7 9.5-1 0-5.8-2.9-10.8-6.5-15.9-11.3-22.8-15.8-29.7-19.2-13-6.4-27.6-10.5-46.8-13.3-37.6-5.4-79.8 1.8-115.5 19.8-24.1 12.1-38.1 22.7-57.8 43.5-12.8 13.6-17.9 19.8-34.9 42.2l-9.8 12.9v158.6c0 179.3-.9 160.6 8.5 165.4 13.2 6.7 25.2 8.9 37.6 6.8 10.3-1.6 22.7-7.9 30-15.2 16.6-16.5 24.5-48.5 19.4-77.9-1.7-9.7-6.1-24.7-7.6-25.5-.5-.4-.9-1.3-.9-2.2 0-2.3-10-18.8-16.4-27.1-7.1-9.1-7.3-11.3-.8-7.8 1.5.8 5 2.5 7.7 3.7 6.5 3 24.6 13.4 30.7 17.6 2.6 1.8 5 3.3 5.2 3.3 2 0 45.3 32.1 48.2 35.6 1.5 1.9 6.6 1.8 21.4-.5 6.9-1.1 17-2.5 22.5-3.2 5.5-.6 10.7-1.3 11.5-1.4 4-.7 32.3-1.8 47.5-1.8 41.1-.1 66.4 4.3 99.4 17.1 6.6 2.5 11.7 4 12.2 3.5s.8-79 .7-185.8c-.3-163.5-.5-185-1.8-185.2-.8-.2-5.5 1.5-10.5 3.8z"/>
  <path fill="currentColor" d="M1976.9 912.9c-8.2 18.1-7.4 47.3 1.9 67.2 7.9 16.9 27.1 36.9 52.5 54.6 12.5 8.8 31.8 27.8 36.6 36.1 6.6 11.6 9.7 25.7 10.9 49.4 1 19 4.9 39.1 10.1 52 13 31.8 32.5 53.5 84.8 94 2.9 2.2 15.5 12.3 28 22.5 12.6 10.2 24.1 19.4 25.5 20.5 12.2 9.3 43.8 36 70.5 59.6 20.8 18.3 33.7 31 37.3 36.6.9 1.5 3 4.4 4.5 6.3s5.1 8.2 8.1 14c13.4 26.5 16.9 49.9 14.7 98.6-.6 14-1.5 29.1-2 33.7-1.8 14.9-1.2 46.8 1 60.2 2.2 13 5 24.8 6.8 28.2.7 1.2 1.2 2.9 1.2 3.8 0 2.8 12.6 27.7 18.7 37 16.8 25.5 39.2 46.4 67.8 63.2 1.8 1.1 8.7 4.4 16 7.8 8.6 4 13.6 5.7 15.2 5.1 1.4-.6 1.1-1.2-1.9-4.4-3.6-3.9-9.5-11.3-11.5-14.7-7-11.6-12.1-23.3-16.1-37-4.6-15.8-6.4-39.1-4.2-53.3.6-3.4 1.4-8.8 1.9-12 2.8-18 11.8-37.1 27.1-57.5 4.7-6.2 7-6.2 7-.2 0 9.4 4.8 35.2 9.2 49.5 9.3 30.1 24.6 59.2 44.6 84.4 8.2 10.4 29.4 31.3 39.2 38.7 8.6 6.5 19.5 14 22.1 15.2.8.4 3.2 1.8 5.4 3.1 4.4 2.6 12.8 6.9 19 9.6 2.2 1 6.1 2.8 8.6 3.9 2.5 1.2 5 2.1 5.7 2.1.6 0 2.6.6 4.4 1.4 8.3 3.5 26.6 8.1 37.8 9.6 4.1.6 10 1.5 13 2.1 8.8 1.8 54.5 1.4 67.6-.5 24.3-3.7 51.2-9.8 65.4-15.1 22.6-8.3 27.3-10.2 42-17.4 6.3-3 17.8-9.3 24.8-13.6 14-8.4 35.3-25.5 42.9-34.4 8.4-9.8 10.3-12.4 10.3-13.8 0-1.8-4-1.6-8.5.3-5.4 2.2-22.4 4.7-33.5 4.8-11.7.1-30.6-1.9-42.5-4.5-11.9-2.7-26-6.5-28.4-7.8-1.1-.6-2.8-1.1-3.8-1.1-1-.1-3.6-.9-5.8-2s-4.4-1.9-4.8-2c-.4 0-2.9-.9-5.5-2.1-20.1-8.9-44.3-24.2-41.9-26.5.3-.4 4.8-.1 9.8.5 17.5 2.3 56.6.3 75.9-3.9 28.7-6.1 45.4-11.8 68.8-23.4 26.1-12.9 46-27.2 66.3-47.5 30.7-30.8 47-58.5 59.3-100.6.8-2.8 2.2-9.4 3.1-14.9.8-5.4 1.8-10.3 2.1-10.8 1.2-2 .4-33.7-1.1-43.3-3.9-23.8-9.2-40.5-19.5-61-6.8-13.3-9.6-18.1-17.8-29.3-14.9-20.7-41.8-45.9-62.7-58.9-6.9-4.3-24.8-14.3-25.6-14.3-.5 0-2-.6-3.2-1.4-2.7-1.8-17.9-7.9-27.2-11-13.6-4.5-20.6-6.6-22.2-6.6-.9 0-3.9-.7-6.7-1.5-21.1-6.1-78.6-8.7-78.6-3.5 0 .5 2.4 1.4 5.3 2 12.2 2.5 34.2 15.9 48.9 29.8 6.2 5.8 20.8 23.9 20.8 25.7 0 .4.8 1.9 1.8 3.3 2.9 4.3 8.9 19 11.3 27.7 1.9 6.8 2.2 10.5 2.2 24.5 0 16.9-1.2 23.7-6.7 38.5-9.3 25.1-34.4 49.4-64.6 62.5-5.2 2.3-10.8 4.8-12.5 5.5-7.1 3.1-27.1 8.4-36.5 9.6-3.6.5-8.7 1.3-11.4 1.9-11.7 2.5-42 1.9-55.3-1-5.4-1.2-7-3.3-3.4-4.5 1-.3 5.2-4 9.3-8.3 17.4-18.2 27.7-40 33.4-70.7 2.8-14.8 2.6-41.9-.3-58.1-2.9-15.7-5-23.3-11.6-41-1.4-3.7-7.3-15.4-10.8-21.4-3.8-6.7-18.4-25.2-24-30.6-6.7-6.3-22.4-18.4-24-18.4-2 0-1.9 2.9.1 10.4 1.9 6.8 2.1 9.8 1.8 22.9-.4 15.5-1.1 19.3-6.2 32.7-10.1 26.7-35.7 47.8-63.6 52.5-10.5 1.8-17 1.8-28 .1-13.8-2.2-29.3-8.4-42.2-17-6.2-4.1-32.6-25.3-70.3-56.6-6-5-16.3-13.5-22.8-18.8s-15.3-12.6-19.6-16.2c-4.4-3.6-12.6-10.3-18.3-14.9-5.6-4.7-12.1-10.1-14.4-12-2.2-2-10.3-8.8-18-15.1-7.6-6.2-19.1-15.7-25.4-20.9-6.3-5.3-15.6-12.9-20.6-17.1-26.5-21.9-26.2-21.7-37.4-27.2-8.6-4.3-19.3-7.8-30-10.1-7.8-1.7-13.8-2.3-32.5-3.2-6-.3-12.6-.8-14.5-1-1.9-.3-7.5-.7-12.5-1.1-10.6-.7-19-3.9-23.5-9-6.1-7-10.7-19.7-14.6-40.4-3.5-18.5-4.2-21.7-6.2-27.6-1.1-3.3-2.6-7.2-3.3-8.5-4-7.2-8.2-13-11.7-16.1-4.2-3.8-15.6-9.6-21.2-10.9-14.7-3.2-18.6-3.8-27.3-4.4-5.4-.3-10.4-.8-11-1-.7-.2-6.1-.9-12.2-1.4-16.4-1.5-30.5-5.6-43-12.5-22.7-12.5-38.5-33.9-38.5-52.1 0-11-1.7-12.3-5.4-4.3z"/>
  <path fill="currentColor" d="M2746 1255.3c-1.1 1.2-.8 3.4 1.2 7.8 4.9 10.7 7.2 17.1 11.4 31.6 5.8 19.7 8.1 42.8 6.6 66.6-.8 13.9-3.8 34.1-6.1 40.9-.5 1.6-1.6 5.2-2.3 8-1.9 7-4.5 14.1-7.1 19.4-1.2 2.5-1.8 5-1.4 5.5 1.4 1.4 8.1.8 18.5-1.8 14.6-3.7 20.6-5.4 24.2-7.1 1.7-.8 3.6-1.5 4.1-1.5 1 0 16.5-7.7 20.7-10.3 5.4-3.3 19.6-15.1 22.7-18.9 9.8-11.9 14.6-22.7 17.3-38.4 2.7-16-.4-33.3-8.5-48-12.1-21.6-36.9-41.5-58.5-46.8-6.8-1.6-20.7-4.2-31-5.6-3.8-.5-7.9-1.2-9-1.6-1.1-.3-2.4-.2-2.8.2z"/>
</svg>
